<svg xmlns="http://www.w3.org/2000/svg" viewBox="0 0 1200 630" width="1200" height="630">
  <defs>
    <linearGradient id="line" x1="0%" y1="0%" x2="100%" y2="0%">
      <stop offset="0%" stop-color="transparent"/>
      <stop offset="50%" stop-color="#ffffff"/>
      <stop offset="100%" stop-color="transparent"/>
    </linearGradient>
    <radialGradient id="glow" cx="50%" cy="50%" r="40%">
      <stop offset="0%" stop-color="rgba(255,255,255,0.06)"/>
      <stop offset="100%" stop-color="transparent"/>
    </radialGradient>
  </defs>

  <!-- Background -->
  <rect width="1200" height="630" fill="#000000"/>

  <!-- Subtle glow -->
  <circle cx="600" cy="315" r="300" fill="url(#glow)"/>

  <!-- Grid pattern -->
  <g stroke="rgba(255,255,255,0.04)" stroke-width="1">
    <line x1="0" y1="60" x2="1200" y2="60"/><line x1="0" y1="120" x2="1200" y2="120"/>
    <line x1="0" y1="180" x2="1200" y2="180"/><line x1="0" y1="240" x2="1200" y2="240"/>
    <line x1="0" y1="300" x2="1200" y2="300"/><line x1="0" y1="360" x2="1200" y2="360"/>
    <line x1="0" y1="420" x2="1200" y2="420"/><line x1="0" y1="480" x2="1200" y2="480"/>
    <line x1="0" y1="540" x2="1200" y2="540"/>
    <line x1="60" y1="0" x2="60" y2="630"/><line x1="120" y1="0" x2="120" y2="630"/>
    <line x1="180" y1="0" x2="180" y2="630"/><line x1="240" y1="0" x2="240" y2="630"/>
    <line x1="300" y1="0" x2="300" y2="630"/><line x1="360" y1="0" x2="360" y2="630"/>
    <line x1="420" y1="0" x2="420" y2="630"/><line x1="480" y1="0" x2="480" y2="630"/>
    <line x1="540" y1="0" x2="540" y2="630"/><line x1="600" y1="0" x2="600" y2="630"/>
    <line x1="660" y1="0" x2="660" y2="630"/><line x1="720" y1="0" x2="720" y2="630"/>
    <line x1="780" y1="0" x2="780" y2="630"/><line x1="840" y1="0" x2="840" y2="630"/>
    <line x1="900" y1="0" x2="900" y2="630"/><line x1="960" y1="0" x2="960" y2="630"/>
    <line x1="1020" y1="0" x2="1020" y2="630"/><line x1="1080" y1="0" x2="1080" y2="630"/>
    <line x1="1140" y1="0" x2="1140" y2="630"/>
  </g>

  <!-- Logo box -->
  <rect x="310" y="175" width="140" height="140" rx="28" fill="#ffffff"/>
  <text x="380" y="290" text-anchor="middle" font-family="'Space Grotesk','Inter','Segoe UI',sans-serif" font-weight="700" font-size="90" fill="#000000">B</text>

  <!-- Text -->
  <text x="490" y="270" font-family="'Space Grotesk','Inter','Segoe UI',sans-serif" font-weight="700" font-size="64" fill="#ffffff" letter-spacing="-1">BSHIYAT</text>
  <text x="490" y="310" font-family="'Inter','Segoe UI',sans-serif" font-weight="400" font-size="24" fill="#9a9a9a">Enterprise AI &amp; Business Solutions</text>

  <!-- Bottom line -->
  <rect x="0" y="626" width="1200" height="4" fill="url(#line)"/>
</svg>